<svg width="1600" height="1000" viewBox="0 0 1600 1000" fill="none" xmlns="http://www.w3.org/2000/svg">
  <rect width="1600" height="1000" fill="#F3F7EF"/>
  <rect x="44" y="44" width="1512" height="912" rx="28" fill="url(#bg)"/>
  <circle cx="1298" cy="204" r="210" fill="url(#goldGlow)" opacity="0.72"/>
  <circle cx="232" cy="784" r="200" fill="url(#greenGlow)" opacity="0.86"/>
  <g opacity="0.96">
    <rect x="270" y="224" width="1060" height="552" rx="34" fill="white" fill-opacity="0.82"/>
    <rect x="340" y="292" width="404" height="416" rx="28" fill="url(#leftPanel)"/>
    <rect x="856" y="292" width="404" height="416" rx="28" fill="url(#rightPanel)"/>
    <path d="M800 276V724" stroke="url(#divider)" stroke-width="8" stroke-linecap="round" stroke-dasharray="16 18"/>
  </g>
  <g>
    <rect x="463" y="452" width="156" height="54" rx="27" transform="rotate(-19 463 452)" fill="#0A4C25"/>
    <rect x="470" y="456" width="72" height="38" rx="19" transform="rotate(-19 470 456)" fill="#154D31"/>
    <rect x="533" y="437" width="82" height="54" rx="27" transform="rotate(-19 533 437)" fill="#D8B35D"/>
    <rect x="991" y="505" width="158" height="56" rx="28" transform="rotate(17 991 505)" fill="#D8B35D"/>
    <rect x="997" y="508" width="72" height="40" rx="20" transform="rotate(17 997 508)" fill="#EAD38B"/>
    <rect x="1061" y="528" width="84" height="56" rx="28" transform="rotate(17 1061 528)" fill="#0A4C25"/>
  </g>
  <g opacity="0.65">
    <circle cx="798" cy="512" r="54" stroke="#0F6A35" stroke-width="3"/>
    <circle cx="798" cy="512" r="18" fill="#C7A14A"/>
    <path d="M744 512H676" stroke="#0F6A35" stroke-width="5" stroke-linecap="round"/>
    <path d="M852 512H920" stroke="#0F6A35" stroke-width="5" stroke-linecap="round"/>
    <path d="M798 458V390" stroke="#0F6A35" stroke-width="5" stroke-linecap="round"/>
    <path d="M798 566V634" stroke="#0F6A35" stroke-width="5" stroke-linecap="round"/>
  </g>
  <g opacity="0.4">
    <rect x="382" y="332" width="128" height="18" rx="9" fill="#C7A14A"/>
    <rect x="382" y="364" width="208" height="14" rx="7" fill="#0F6A35"/>
    <rect x="382" y="390" width="176" height="14" rx="7" fill="#0F6A35" fill-opacity="0.72"/>
    <rect x="382" y="416" width="148" height="14" rx="7" fill="#0F6A35" fill-opacity="0.6"/>
    <rect x="894" y="332" width="132" height="18" rx="9" fill="#0F6A35"/>
    <rect x="894" y="364" width="214" height="14" rx="7" fill="#C7A14A"/>
    <rect x="894" y="390" width="164" height="14" rx="7" fill="#C7A14A" fill-opacity="0.76"/>
    <rect x="894" y="416" width="138" height="14" rx="7" fill="#C7A14A" fill-opacity="0.58"/>
  </g>
  <defs>
    <linearGradient id="bg" x1="108" y1="72" x2="1503" y2="925" gradientUnits="userSpaceOnUse">
      <stop stop-color="#FBFCF8"/>
      <stop offset="0.48" stop-color="#EEF5E8"/>
      <stop offset="1" stop-color="#FAFBF7"/>
    </linearGradient>
    <linearGradient id="leftPanel" x1="375" y1="314" x2="709" y2="687" gradientUnits="userSpaceOnUse">
      <stop stop-color="#F9FCF8"/>
      <stop offset="1" stop-color="#EDF5EB"/>
    </linearGradient>
    <linearGradient id="rightPanel" x1="877" y1="311" x2="1227" y2="686" gradientUnits="userSpaceOnUse">
      <stop stop-color="#FEFCF4"/>
      <stop offset="1" stop-color="#F8F0D7"/>
    </linearGradient>
    <linearGradient id="divider" x1="800" y1="276" x2="800" y2="724" gradientUnits="userSpaceOnUse">
      <stop stop-color="#C7A14A"/>
      <stop offset="1" stop-color="#0A4C25"/>
    </linearGradient>
    <radialGradient id="goldGlow" cx="0" cy="0" r="1" gradientUnits="userSpaceOnUse" gradientTransform="translate(1298 204) rotate(90) scale(210)">
      <stop stop-color="#F2DEAA"/>
      <stop offset="1" stop-color="#F2DEAA" stop-opacity="0"/>
    </radialGradient>
    <radialGradient id="greenGlow" cx="0" cy="0" r="1" gradientUnits="userSpaceOnUse" gradientTransform="translate(232 784) rotate(90) scale(200)">
      <stop stop-color="#D7E7D5"/>
      <stop offset="1" stop-color="#D7E7D5" stop-opacity="0"/>
    </radialGradient>
  </defs>
</svg>
